<?xml version="1.0" standalone="no"?>
<!DOCTYPE svg PUBLIC "-//W3C//DTD SVG 20010904//EN"
 "http://www.w3.org/TR/2001/REC-SVG-20010904/DTD/svg10.dtd">
<svg version="1.0" xmlns="http://www.w3.org/2000/svg"
 width="500.000000pt" height="500.000000pt" viewBox="0 0 500.000000 500.000000"
 preserveAspectRatio="xMidYMid meet">
<metadata>
Created by potrace 1.14, written by Peter Selinger 2001-2017
</metadata>
<g transform="translate(0.000000,500.000000) scale(0.100000,-0.100000)"
fill="#000000" stroke="none">
<path d="M0 2500 l0 -2500 2500 0 2500 0 0 2500 0 2500 -2500 0 -2500 0 0
-2500z m2595 1661 c281 -68 898 -409 1199 -663 154 -129 188 -193 220 -414 59
-405 41 -1094 -34 -1338 -29 -91 -73 -149 -186 -244 -311 -263 -943 -608
-1221 -668 -81 -17 -84 -17 -171 4 -313 77 -936 426 -1249 700 -111 97 -148
175 -177 378 -47 324 -47 844 0 1168 29 203 66 281 177 378 304 267 907 607
1227 694 105 28 115 29 215 5z"/>
<path d="M2360 4051 c-154 -51 -329 -134 -565 -269 -394 -224 -643 -416 -684
-527 -76 -202 -96 -946 -36 -1345 22 -147 39 -192 95 -253 228 -249 1105 -737
1325 -737 98 0 356 107 641 265 305 169 535 325 660 450 59 58 75 81 88 125
87 289 87 1191 0 1480 -13 44 -29 67 -88 125 -267 266 -1090 716 -1304 715
-26 -1 -85 -13 -132 -29z m225 -25 c196 -52 574 -247 895 -462 260 -174 345
-255 375 -358 77 -265 77 -1157 0 -1411 -21 -72 -57 -118 -155 -200 -323 -268
-1018 -635 -1205 -635 -169 0 -755 298 -1119 569 -138 102 -200 163 -224 219
-50 115 -74 364 -74 752 0 388 24 637 74 752 24 56 86 117 224 219 301 225
800 493 1034 558 51 14 118 13 175 -3z"/>
<path d="M2485 3358 c-2 -7 -6 -33 -7 -57 -3 -43 -4 -44 -48 -57 -93 -27 -170
-126 -170 -218 0 -35 4 -45 19 -49 12 -3 21 -15 23 -33 2 -24 9 -30 36 -34 27
-4 36 -12 52 -48 11 -24 16 -42 12 -40 -4 2 -19 10 -35 17 -41 21 -47 3 -9
-28 57 -48 144 -63 224 -39 51 15 126 82 149 133 27 59 25 160 -4 215 -13 24
-28 45 -35 48 -15 5 -16 -23 -1 -49 10 -19 8 -20 -22 -17 -28 3 -34 8 -47 47
-9 27 -22 45 -34 49 -14 3 -19 11 -15 28 3 18 -1 24 -17 26 -18 3 -22 12 -26
58 -4 42 -9 56 -23 58 -9 2 -19 -2 -22 -10z m67 -155 c19 -22 48 -78 48 -93 0
-5 -18 -10 -40 -10 l-40 0 0 60 c0 63 7 72 32 43z m-162 -50 c-16 -42 -22 -48
-50 -51 -28 -3 -30 -1 -21 16 9 17 77 82 85 82 2 0 -4 -21 -14 -47z m100 -148
l0 -65 -45 0 -45 0 0 65 0 65 45 0 45 0 0 -65z m228 21 c6 -67 -4 -86 -41 -86
l-33 0 2 63 c2 34 3 63 4 65 0 2 15 2 33 0 29 -3 32 -6 35 -42z m-228 -171 c0
-30 -4 -55 -9 -55 -11 0 -61 58 -61 70 0 5 -3 15 -6 24 -5 13 2 16 35 16 l41
0 0 -55z m106 39 c-3 -9 -6 -19 -6 -24 0 -12 -50 -70 -61 -70 -5 0 -9 25 -9
55 l0 55 41 0 c33 0 40 -3 35 -16z"/>
<path d="M2750 3317 c0 -8 -10 -19 -22 -25 l-23 -11 22 0 c14 -1 23 -9 26 -23
l4 -23 8 23 c4 13 16 22 29 23 21 0 21 0 -1 11 -13 6 -23 17 -23 25 0 7 -4 13
-10 13 -5 0 -10 -6 -10 -13z"/>
<path d="M2643 3259 c-9 -22 -18 -29 -38 -29 -15 0 -24 -4 -20 -10 3 -5 15
-10 26 -10 13 0 25 -11 34 -32 14 -34 14 -34 30 17 2 8 13 15 24 15 32 0 33
17 1 24 -21 4 -30 11 -30 25 0 32 -15 32 -27 0z"/>
<path d="M2255 2928 c-8 -25 -18 -34 -45 -41 -35 -9 -35 -9 -10 -19 48 -19 55
-25 58 -52 5 -36 20 -33 30 7 6 25 15 33 37 37 37 6 37 24 0 30 -22 4 -31 12
-37 38 -11 41 -21 41 -33 0z"/>
<path d="M2380 2647 c-20 -10 -26 -21 -28 -54 -3 -37 2 -46 48 -99 28 -32 53
-68 56 -81 7 -25 -10 -53 -32 -53 -18 0 -44 40 -44 69 l0 25 -21 -21 c-48 -47
13 -106 89 -87 43 11 68 48 58 87 -3 15 -26 49 -51 77 -54 61 -67 84 -59 105
11 28 57 15 75 -22 9 -18 19 -30 23 -26 8 9 7 66 -2 78 -11 15 -84 17 -112 2z"/>
<path d="M1815 2495 c0 -148 1 -155 20 -155 19 0 20 6 18 118 l-3 117 39 -110
c28 -79 41 -105 46 -92 4 10 20 57 35 105 l28 87 1 -112 1 -113 25 0 25 0 0
139 c0 77 3 146 6 155 5 13 -1 16 -30 16 -20 0 -38 -6 -41 -12 -2 -7 -15 -49
-28 -93 l-24 -80 -28 93 c-28 90 -29 92 -59 92 l-31 0 0 -155z"/>
<path d="M2174 2618 c-44 -53 -67 -116 -72 -200 l-5 -78 27 0 c26 0 27 2 20
38 -8 40 -9 49 -6 100 2 27 6 32 26 32 38 0 73 -50 81 -115 7 -53 8 -55 37
-55 27 0 30 3 24 23 -13 42 -46 230 -46 259 0 24 -4 28 -29 28 -21 0 -37 -10
-57 -32z m45 -75 c1 -21 -1 -22 -26 -11 -16 7 -30 13 -32 14 -2 2 7 18 20 35
l23 33 7 -24 c4 -14 7 -35 8 -47z"/>
<path d="M2531 2608 c0 -33 2 -38 9 -23 11 29 37 48 55 41 14 -5 16 -24 13
-128 -2 -68 -7 -131 -12 -140 -7 -16 -3 -18 30 -18 l39 0 -3 141 c-2 84 0 145
6 151 11 11 45 -17 54 -43 9 -26 20 -1 13 30 l-7 31 -99 0 -99 0 1 -42z"/>
<path d="M2772 2613 c11 -40 6 -226 -7 -255 -6 -16 0 -18 67 -18 81 0 98 9 98
50 -1 23 -2 23 -14 8 -20 -27 -61 -39 -80 -25 -14 10 -16 27 -14 87 l3 75 35
3 c45 4 65 22 24 22 -39 0 -67 21 -63 46 6 29 55 31 85 3 19 -18 24 -19 24 -7
0 43 -10 48 -90 48 l-78 0 10 -37z"/>
<path d="M2970 2629 c7 -13 10 -69 8 -155 l-3 -134 28 0 28 0 -2 91 c-2 87 7
119 29 105 6 -3 15 -36 22 -73 16 -93 33 -123 70 -123 35 0 36 3 11 38 -25 36
-49 94 -52 129 -2 20 5 36 24 55 58 58 27 88 -89 88 -83 0 -84 -1 -74 -21z
m125 -34 c0 -27 -4 -30 -32 -33 -32 -3 -33 -2 -33 33 0 35 1 36 33 33 28 -3
32 -6 32 -33z"/>
<path d="M2293 2257 c-38 -51 -61 -121 -66 -204 l-3 -63 29 0 c25 0 27 2 20
23 -10 28 -11 133 0 143 14 14 61 -11 79 -42 10 -17 18 -51 19 -77 2 -47 3
-47 37 -47 28 0 33 3 27 18 -13 34 -35 148 -41 220 l-7 72 -31 0 c-25 -1 -38
-9 -63 -43z m47 -24 c0 -10 3 -27 6 -39 5 -18 2 -20 -25 -16 -35 5 -38 13 -15
47 19 29 34 32 34 8z"/>
<path d="M2472 2248 c6 -29 8 -99 6 -155 l-5 -103 33 0 c31 0 33 2 29 33 -18
144 -12 167 41 167 59 0 100 56 68 91 -14 16 -32 19 -99 19 l-82 0 9 -52z
m125 16 c9 -24 -10 -49 -41 -52 -24 -3 -26 0 -26 32 0 33 2 36 30 36 19 0 33
-6 37 -16z"/>
<path d="M2695 2145 l0 -155 30 0 30 0 0 155 0 155 -30 0 -30 0 0 -155z"/>
<path d="M2011 1949 c-54 -5 -69 -11 -88 -33 -43 -50 -25 -173 34 -232 35 -36
97 -54 116 -35 8 8 5 11 -10 11 -12 0 -35 12 -52 26 -63 53 -80 211 -26 236
32 15 53 4 70 -34 l13 -33 7 26 c4 15 5 37 3 50 -3 23 -5 24 -67 18z"/>
<path d="M2128 1816 c2 -86 -1 -142 -8 -155 -10 -20 -9 -21 69 -21 83 0 91 5
91 50 0 17 -3 16 -25 -6 -16 -16 -34 -24 -48 -22 -22 3 -22 6 -22 146 l0 142
-30 0 -30 0 3 -134z"/>
<path d="M2315 1795 l0 -155 30 0 30 0 0 155 0 155 -30 0 -30 0 0 -155z"/>
<path d="M2441 1920 c17 -46 8 -259 -11 -270 -10 -7 13 -10 71 -10 91 0 99 4
99 50 0 17 -3 16 -25 -5 -27 -28 -70 -33 -79 -9 -8 20 -8 128 0 148 4 11 19
16 45 16 21 0 39 5 39 10 0 6 -18 10 -40 10 -34 0 -41 4 -46 24 -3 14 -3 30 1
35 11 19 55 12 80 -14 22 -21 25 -22 25 -5 0 45 -9 50 -91 50 l-78 0 10 -30z"/>
<path d="M2640 1930 c7 -13 10 -71 8 -155 -3 -133 -3 -135 19 -135 21 0 22 2
17 108 -6 125 -5 125 71 -18 63 -118 81 -119 77 -5 -1 44 1 113 6 153 l8 72
-26 0 -26 0 4 -102 3 -103 -20 33 c-12 18 -37 64 -56 102 -32 63 -38 70 -65
70 -28 0 -30 -2 -20 -20z"/>
<path d="M2877 1943 c-4 -3 -7 -22 -7 -42 l1 -36 16 27 c18 29 39 42 54 32 12
-7 11 -241 -1 -265 -10 -18 -7 -19 37 -19 36 0 44 3 35 12 -17 17 -17 264 0
274 7 4 23 -6 40 -26 l28 -34 0 26 c0 55 -5 58 -104 58 -51 0 -96 -3 -99 -7z"/>
</g>
</svg>
